<?xml version="1.0" encoding="UTF-8" standalone="no"?>
<svg
   viewBox="0 0 261898.29 248971.06"
   version="1.1"
   id="svg2"
   sodipodi:docname="Photoshop.svg"
   width="261898.3"
   height="248971.06"
   xmlns:inkscape="http://www.inkscape.org/namespaces/inkscape"
   xmlns:sodipodi="http://sodipodi.sourceforge.net/DTD/sodipodi-0.dtd"
   xmlns="http://www.w3.org/2000/svg"
   xmlns:svg="http://www.w3.org/2000/svg">
  <sodipodi:namedview
     id="namedview2"
     pagecolor="#ffffff"
     bordercolor="#000000"
     borderopacity="0.25"
     inkscape:showpageshadow="2"
     inkscape:pageopacity="0.0"
     inkscape:pagecheckerboard="0"
     inkscape:deskcolor="#d1d1d1" />
  <defs
     id="defs1">
    <style
       id="style1">.a{fill:#001e36;}.b{fill:#31a8ff;}</style>
  </defs>
  <title
     id="title1">adobe-photoshop</title>
  <rect
     class="a"
     width="511.76001"
     height="498.97"
     rx="90.620003"
     id="rect1"
     x="0"
     y="0" />
  <path
     class="b"
     d="M 115.24,349.91 V 130.53 c 0,-1.59 0.68,-2.4 2.06,-2.4 3.65,0 7,0 12,-0.17 5,-0.17 10.47,-0.23 16.31,-0.34 l 18.54,-0.35 q 9.78,-0.17 19.39,-0.17 26.09,0 44,6.52 a 76.4,76.4 0 0 1 28.66,17.51 67.06,67.06 0 0 1 15.62,24.21 80.31,80.31 0 0 1 4.79,27.66 q 0,27.48 -12.7,45.32 a 71.82,71.82 0 0 1 -34.33,25.92 c -14.42,5.38 -30.45,7.2 -48.07,7.2 -5,0 -8.58,-0.05 -10.64,-0.17 -2.06,-0.12 -5.15,-0.17 -9.27,-0.17 v 68.49 a 2.72,2.72 0 0 1 -2.32,3.09 2.49,2.49 0 0 1 -0.77,0 h -40.87 c -1.64,-0.03 -2.4,-0.94 -2.4,-2.77 z M 161.6,169.33 v 71.55 q 4.46,0.35 8.24,0.34 h 11.33 a 80.56,80.56 0 0 0 24.55,-3.92 37,37 0 0 0 17.51,-11.3 q 6.69,-7.89 6.69,-22 a 34.74,34.74 0 0 0 -5,-18.88 32,32 0 0 0 -14.92,-12.19 63.68,63.68 0 0 0 -25,-4.29 q -8.25,0 -14.59,0.17 -6.34,0.17 -8.76,0.52 z"
     id="path1" />
  <path
     class="b"
     d="m 409.35,227.87 a 80,80 0 0 0 -20.43,-7.21 108.28,108.28 0 0 0 -23.86,-2.75 44.38,44.38 0 0 0 -12.87,1.55 11.55,11.55 0 0 0 -6.7,4.29 10.79,10.79 0 0 0 -1.71,5.84 9.08,9.08 0 0 0 2.06,5.49 23.25,23.25 0 0 0 7.21,5.66 141.8,141.8 0 0 0 15.1,7 150,150 0 0 1 32.79,15.62 50,50 0 0 1 16.82,17.68 47.17,47.17 0 0 1 5,22 49.41,49.41 0 0 1 -8.24,28.33 54.23,54.23 0 0 1 -23.86,19.05 Q 375,357.3 352,357.3 a 140.51,140.51 0 0 1 -29,-2.75 92.44,92.44 0 0 1 -21.8,-6.87 4.44,4.44 0 0 1 -2.41,-4.12 v -37.07 a 2,2 0 0 1 0.86,-1.89 1.66,1.66 0 0 1 1.89,0.17 91.62,91.62 0 0 0 26.46,10.47 108.66,108.66 0 0 0 25.07,3.26 q 12,0 17.68,-3.09 a 9.7,9.7 0 0 0 5.66,-8.92 q 0,-4.47 -5.15,-8.59 -5.15,-4.12 -20.96,-9.9 a 126.06,126.06 0 0 1 -30.38,-15.45 52.42,52.42 0 0 1 -16.14,-18 47.35,47.35 0 0 1 -5,-21.8 49.21,49.21 0 0 1 7.22,-25.82 52.37,52.37 0 0 1 22.32,-19.57 q 15.1,-7.55 37.76,-7.55 a 167.13,167.13 0 0 1 26.44,1.88 69.58,69.58 0 0 1 18.4,5 3.13,3.13 0 0 1 2.06,1.89 9.31,9.31 0 0 1 0.34,2.57 v 34.68 a 2.3,2.3 0 0 1 -1,2.06 3.33,3.33 0 0 1 -2.97,-0.02 z"
     id="path2" />
</svg>
